<svg xmlns="http://www.w3.org/2000/svg" width="1080" height="1350" viewBox="0 0 1080 1350" role="img" aria-label="Drama on Deck poster">
  <defs>
    <linearGradient id="bg" x1="0" x2="0" y1="0" y2="1">
      <stop offset="0" stop-color="#07030e"/>
      <stop offset="0.55" stop-color="#0b0614"/>
      <stop offset="1" stop-color="#07030e"/>
    </linearGradient>
    <radialGradient id="spot1" cx="28%" cy="18%" r="55%">
      <stop offset="0" stop-color="#f6c35f" stop-opacity="0.42"/>
      <stop offset="0.6" stop-color="#c5142a" stop-opacity="0.14"/>
      <stop offset="1" stop-color="#000" stop-opacity="0"/>
    </radialGradient>
    <radialGradient id="spot2" cx="78%" cy="78%" r="62%">
      <stop offset="0" stop-color="#2a49ff" stop-opacity="0.32"/>
      <stop offset="0.65" stop-color="#8f42ff" stop-opacity="0.12"/>
      <stop offset="1" stop-color="#000" stop-opacity="0"/>
    </radialGradient>
    <linearGradient id="gold" x1="0" x2="1" y1="0" y2="0">
      <stop offset="0" stop-color="#f6c35f"/>
      <stop offset="0.45" stop-color="#fff1c9"/>
      <stop offset="1" stop-color="#f6c35f"/>
    </linearGradient>
    <filter id="shadow" x="-20%" y="-20%" width="140%" height="140%">
      <feDropShadow dx="0" dy="18" stdDeviation="18" flood-color="#000" flood-opacity="0.55"/>
    </filter>
    <filter id="glow" x="-30%" y="-30%" width="160%" height="160%">
      <feGaussianBlur stdDeviation="6" result="blur"/>
      <feColorMatrix in="blur" type="matrix"
        values="1 0 0 0 0
                0 1 0 0 0
                0 0 1 0 0
                0 0 0 0.55 0" result="glow"/>
      <feMerge>
        <feMergeNode in="glow"/>
        <feMergeNode in="SourceGraphic"/>
      </feMerge>
    </filter>
  </defs>

  <!-- Background -->
  <rect width="1080" height="1350" fill="url(#bg)"/>
  <rect width="1080" height="1350" fill="url(#spot1)"/>
  <rect width="1080" height="1350" fill="url(#spot2)"/>

  <!-- Film-strip perforations -->
  <g opacity="0.55">
    <rect x="70" y="84" width="940" height="1182" rx="40" fill="rgba(255,255,255,0.05)" stroke="rgba(255,255,255,0.10)"/>
    <!-- left holes -->
    <g fill="rgba(0,0,0,0.55)">
      <!-- 28 rows -->
      <g transform="translate(92,140)">
        <!-- generated manually for a clean static SVG -->
        <rect x="0" y="0" width="22" height="16" rx="4"/>
        <rect x="0" y="46" width="22" height="16" rx="4"/>
        <rect x="0" y="92" width="22" height="16" rx="4"/>
        <rect x="0" y="138" width="22" height="16" rx="4"/>
        <rect x="0" y="184" width="22" height="16" rx="4"/>
        <rect x="0" y="230" width="22" height="16" rx="4"/>
        <rect x="0" y="276" width="22" height="16" rx="4"/>
        <rect x="0" y="322" width="22" height="16" rx="4"/>
        <rect x="0" y="368" width="22" height="16" rx="4"/>
        <rect x="0" y="414" width="22" height="16" rx="4"/>
        <rect x="0" y="460" width="22" height="16" rx="4"/>
        <rect x="0" y="506" width="22" height="16" rx="4"/>
        <rect x="0" y="552" width="22" height="16" rx="4"/>
        <rect x="0" y="598" width="22" height="16" rx="4"/>
        <rect x="0" y="644" width="22" height="16" rx="4"/>
        <rect x="0" y="690" width="22" height="16" rx="4"/>
        <rect x="0" y="736" width="22" height="16" rx="4"/>
        <rect x="0" y="782" width="22" height="16" rx="4"/>
        <rect x="0" y="828" width="22" height="16" rx="4"/>
        <rect x="0" y="874" width="22" height="16" rx="4"/>
        <rect x="0" y="920" width="22" height="16" rx="4"/>
        <rect x="0" y="966" width="22" height="16" rx="4"/>
        <rect x="0" y="1012" width="22" height="16" rx="4"/>
        <rect x="0" y="1058" width="22" height="16" rx="4"/>
      </g>
      <!-- right holes -->
      <g transform="translate(966,140)">
        <rect x="0" y="0" width="22" height="16" rx="4"/>
        <rect x="0" y="46" width="22" height="16" rx="4"/>
        <rect x="0" y="92" width="22" height="16" rx="4"/>
        <rect x="0" y="138" width="22" height="16" rx="4"/>
        <rect x="0" y="184" width="22" height="16" rx="4"/>
        <rect x="0" y="230" width="22" height="16" rx="4"/>
        <rect x="0" y="276" width="22" height="16" rx="4"/>
        <rect x="0" y="322" width="22" height="16" rx="4"/>
        <rect x="0" y="368" width="22" height="16" rx="4"/>
        <rect x="0" y="414" width="22" height="16" rx="4"/>
        <rect x="0" y="460" width="22" height="16" rx="4"/>
        <rect x="0" y="506" width="22" height="16" rx="4"/>
        <rect x="0" y="552" width="22" height="16" rx="4"/>
        <rect x="0" y="598" width="22" height="16" rx="4"/>
        <rect x="0" y="644" width="22" height="16" rx="4"/>
        <rect x="0" y="690" width="22" height="16" rx="4"/>
        <rect x="0" y="736" width="22" height="16" rx="4"/>
        <rect x="0" y="782" width="22" height="16" rx="4"/>
        <rect x="0" y="828" width="22" height="16" rx="4"/>
        <rect x="0" y="874" width="22" height="16" rx="4"/>
        <rect x="0" y="920" width="22" height="16" rx="4"/>
        <rect x="0" y="966" width="22" height="16" rx="4"/>
        <rect x="0" y="1012" width="22" height="16" rx="4"/>
        <rect x="0" y="1058" width="22" height="16" rx="4"/>
      </g>
    </g>
  </g>

  <!-- Main content card -->
  <g filter="url(#shadow)">
    <rect x="140" y="170" width="800" height="1010" rx="44" fill="rgba(255,255,255,0.06)" stroke="rgba(246,195,95,0.22)"/>
  </g>

  <!-- Neon lines -->
  <g opacity="0.75">
    <rect x="160" y="270" width="760" height="3" fill="url(#gold)"/>
    <rect x="160" y="1012" width="760" height="3" fill="url(#gold)"/>
  </g>

  <!-- Header -->
  <g>
    <text x="540" y="250" text-anchor="middle" fill="rgba(255,255,255,0.78)" font-family="Inter, Arial, sans-serif" font-size="24" letter-spacing="4">
      BOLLYWOOD DAYS
    </text>

    <text x="540" y="410" text-anchor="middle" fill="url(#gold)" font-family="Cinzel, Georgia, serif" font-size="92" letter-spacing="6" filter="url(#glow)">
      DRAMA
    </text>
    <text x="540" y="510" text-anchor="middle" fill="rgba(255,255,255,0.92)" font-family="Cinzel, Georgia, serif" font-size="74" letter-spacing="6">
      ON DECK
    </text>

    <text x="540" y="575" text-anchor="middle" fill="rgba(255,255,255,0.78)" font-family="Inter, Arial, sans-serif" font-size="30" letter-spacing="2">
      Lights. Camera. Drama.
    </text>
  </g>

  <!-- Tagline -->
  <g>
    <text x="540" y="660" text-anchor="middle" fill="rgba(255,255,255,0.72)" font-family="Inter, Arial, sans-serif" font-size="26">
      An immersive Bollywood experience of games, performances &amp; music
    </text>
  </g>

  <!-- Feature chips -->
  <g font-family="Inter, Arial, sans-serif" font-size="22" fill="rgba(255,255,255,0.88)">
    <g transform="translate(250,730)">
      <rect x="0" y="0" width="160" height="46" rx="23" fill="rgba(246,195,95,0.14)" stroke="rgba(246,195,95,0.26)"/>
      <text x="80" y="31" text-anchor="middle">Games</text>
    </g>
    <g transform="translate(460,730)">
      <rect x="0" y="0" width="180" height="46" rx="23" fill="rgba(255,58,166,0.12)" stroke="rgba(255,58,166,0.24)"/>
      <text x="90" y="31" text-anchor="middle">Open Mic</text>
    </g>
    <g transform="translate(690,730)">
      <rect x="0" y="0" width="160" height="46" rx="23" fill="rgba(42,73,255,0.12)" stroke="rgba(42,73,255,0.24)"/>
      <text x="80" y="31" text-anchor="middle">DJ Night</text>
    </g>
  </g>

  <!-- Details placeholder -->
  <g font-family="Inter, Arial, sans-serif" fill="rgba(255,255,255,0.84)">
    <text x="220" y="845" font-size="20" letter-spacing="3" fill="rgba(255,255,255,0.62)">DATE</text>
    <text x="220" y="885" font-size="32" font-weight="700">DD Month YYYY</text>

    <text x="220" y="945" font-size="20" letter-spacing="3" fill="rgba(255,255,255,0.62)">TIME</text>
    <text x="220" y="985" font-size="32" font-weight="700">00:00 PM onwards</text>

    <text x="220" y="1045" font-size="20" letter-spacing="3" fill="rgba(255,255,255,0.62)">VENUE</text>
    <text x="220" y="1085" font-size="32" font-weight="700">Main Stage</text>
  </g>

  <!-- Footer line -->
  <g opacity="0.8">
    <text x="540" y="1160" text-anchor="middle" fill="rgba(255,255,255,0.65)" font-family="Inter, Arial, sans-serif" font-size="20" letter-spacing="2">
      Bring your best Bollywood look " Bring your loudest cheer
    </text>
  </g>
</svg>

